<svg width="1100" height="860" viewBox="0 0 1100 860" fill="none" xmlns="http://www.w3.org/2000/svg">
  <defs>
    <linearGradient id="heroBg" x1="98" y1="64" x2="975" y2="760" gradientUnits="userSpaceOnUse">
      <stop stop-color="#1B1715"/>
      <stop offset="1" stop-color="#2F241F"/>
    </linearGradient>
    <linearGradient id="heroAccent" x1="220" y1="184" x2="706" y2="572" gradientUnits="userSpaceOnUse">
      <stop stop-color="#FF5A1F"/>
      <stop offset="1" stop-color="#FFCAA7"/>
    </linearGradient>
    <linearGradient id="heroGlass" x1="762" y1="184" x2="954" y2="364" gradientUnits="userSpaceOnUse">
      <stop stop-color="#FFFFFF"/>
      <stop offset="1" stop-color="#FFF1E8"/>
    </linearGradient>
  </defs>
  <rect width="1100" height="860" rx="40" fill="url(#heroBg)"/>
  <circle cx="912" cy="138" r="116" fill="#FF5A1F" fill-opacity="0.16"/>
  <circle cx="194" cy="706" r="144" fill="#FFB78D" fill-opacity="0.08"/>
  <rect x="74" y="72" width="952" height="716" rx="34" fill="#FFF8F4"/>
  <rect x="104" y="104" width="892" height="74" rx="22" fill="#FFFFFF" stroke="#F2D6C4" stroke-width="2"/>
  <rect x="134" y="131" width="164" height="18" rx="9" fill="#1F1815"/>
  <rect x="768" y="123" width="86" height="34" rx="17" fill="#FFF4ED" stroke="#F2D6C4" stroke-width="2"/>
  <rect x="872" y="123" width="94" height="34" rx="17" fill="#FF5A1F"/>
  <rect x="104" y="212" width="198" height="546" rx="30" fill="#1F1815"/>
  <rect x="138" y="254" width="112" height="14" rx="7" fill="#FFFFFF" fill-opacity="0.92"/>
  <rect x="138" y="288" width="128" height="10" rx="5" fill="#FFFFFF" fill-opacity="0.36"/>
  <rect x="126" y="336" width="154" height="58" rx="18" fill="#FF5A1F"/>
  <rect x="126" y="414" width="154" height="58" rx="18" fill="#FFFFFF" fill-opacity="0.08"/>
  <rect x="126" y="492" width="154" height="58" rx="18" fill="#FFFFFF" fill-opacity="0.08"/>
  <rect x="126" y="570" width="154" height="58" rx="18" fill="#FFFFFF" fill-opacity="0.08"/>
  <rect x="338" y="212" width="424" height="300" rx="34" fill="url(#heroAccent)"/>
  <rect x="790" y="212" width="176" height="140" rx="28" fill="url(#heroGlass)" stroke="#F2D6C4" stroke-width="2"/>
  <rect x="790" y="372" width="176" height="140" rx="28" fill="#1F1815"/>
  <rect x="338" y="536" width="274" height="170" rx="28" fill="#FFFFFF" stroke="#F2D6C4" stroke-width="2"/>
  <rect x="632" y="536" width="334" height="170" rx="28" fill="#FFF2EA"/>
  <text x="374" y="270" fill="#FFFFFF" font-family="Space Grotesk, Arial" font-size="18" font-weight="700">People Operations Overview</text>
  <text x="374" y="318" fill="#FFFFFF" font-family="Space Grotesk, Arial" font-size="44" font-weight="700">Payroll, onboarding and approvals</text>
  <text x="374" y="360" fill="#FFFFFF" font-family="Manrope, Arial" font-size="18" opacity="0.82">A premium command center for HR, payroll and employee lifecycle control.</text>
  <rect x="374" y="404" width="158" height="18" rx="9" fill="#FFFFFF" fill-opacity="0.72"/>
  <rect x="374" y="436" width="210" height="48" rx="20" fill="#FFFFFF"/>
  <text x="820" y="250" fill="#1F1815" font-family="Space Grotesk, Arial" font-size="16" font-weight="700">Recruitment velocity</text>
  <path d="M820 318L846 284L872 296L910 252L938 270" stroke="#FF5A1F" stroke-width="8" stroke-linecap="round" stroke-linejoin="round"/>
  <circle cx="820" cy="318" r="5" fill="#FF5A1F"/>
  <circle cx="846" cy="284" r="5" fill="#FF5A1F"/>
  <circle cx="872" cy="296" r="5" fill="#FF5A1F"/>
  <circle cx="910" cy="252" r="5" fill="#FF5A1F"/>
  <circle cx="938" cy="270" r="5" fill="#FF5A1F"/>
  <text x="820" y="410" fill="#FFFFFF" font-family="Space Grotesk, Arial" font-size="16" font-weight="700">Payroll readiness</text>
  <rect x="820" y="434" width="116" height="18" rx="9" fill="#FFFFFF" fill-opacity="0.18"/>
  <rect x="820" y="466" width="72" height="12" rx="6" fill="#FFFFFF" fill-opacity="0.48"/>
  <rect x="374" y="572" width="150" height="14" rx="7" fill="#1F1815" fill-opacity="0.24"/>
  <text x="374" y="616" fill="#1F1815" font-family="Space Grotesk, Arial" font-size="20" font-weight="700">Approvals in motion</text>
  <rect x="374" y="640" width="198" height="18" rx="9" fill="#F2D6C4"/>
  <rect x="668" y="572" width="134" height="14" rx="7" fill="#1F1815" fill-opacity="0.2"/>
  <text x="668" y="616" fill="#1F1815" font-family="Space Grotesk, Arial" font-size="20" font-weight="700">Key decision layer</text>
  <rect x="668" y="642" width="118" height="46" rx="18" fill="#FFFFFF" stroke="#F2D6C4" stroke-width="2"/>
  <rect x="806" y="642" width="118" height="46" rx="18" fill="#FF5A1F"/>
</svg>
