<svg width="1100" height="760" viewBox="0 0 1100 760" fill="none" xmlns="http://www.w3.org/2000/svg">
  <defs>
    <linearGradient id="lifeBg" x1="84" y1="70" x2="996" y2="664" gradientUnits="userSpaceOnUse">
      <stop stop-color="#FFFDFC"/>
      <stop offset="1" stop-color="#FFF2E8"/>
    </linearGradient>
    <linearGradient id="lifeAccent" x1="180" y1="240" x2="880" y2="492" gradientUnits="userSpaceOnUse">
      <stop stop-color="#FF5A1F"/>
      <stop offset="1" stop-color="#FFCAA7"/>
    </linearGradient>
  </defs>
  <rect width="1100" height="760" rx="36" fill="url(#lifeBg)"/>
  <rect x="60" y="60" width="980" height="640" rx="30" fill="#FFFFFF" stroke="#F2D6C4" stroke-width="2"/>
  <text x="94" y="120" fill="#1F1815" font-family="Space Grotesk, Arial" font-size="18" font-weight="700">Connected employee journey</text>
  <text x="94" y="170" fill="#1F1815" font-family="Space Grotesk, Arial" font-size="42" font-weight="700">From hire to exit, one platform stays in sync</text>
  <path d="M148 404C218 314 324 270 432 286C514 298 564 356 650 370C742 384 814 344 918 262" stroke="url(#lifeAccent)" stroke-width="18" stroke-linecap="round"/>
  <circle cx="162" cy="390" r="16" fill="#FF5A1F"/>
  <circle cx="356" cy="300" r="16" fill="#FF8E58"/>
  <circle cx="548" cy="346" r="16" fill="#FFB286"/>
  <circle cx="740" cy="368" r="16" fill="#FF8E58"/>
  <circle cx="930" cy="250" r="16" fill="#FF5A1F"/>
  <rect x="104" y="450" width="168" height="170" rx="28" fill="#1F1815"/>
  <rect x="294" y="242" width="180" height="170" rx="28" fill="#FFF6F0" stroke="#F2D6C4" stroke-width="2"/>
  <rect x="502" y="404" width="188" height="170" rx="28" fill="#FFF3EA"/>
  <rect x="724" y="214" width="180" height="170" rx="28" fill="#1F1815"/>
  <rect x="822" y="442" width="176" height="170" rx="28" fill="#FFF6F0" stroke="#F2D6C4" stroke-width="2"/>
  <text x="132" y="494" fill="#FFFFFF" font-family="Space Grotesk, Arial" font-size="22" font-weight="700">1. Hire</text>
  <text x="132" y="530" fill="#FFFFFF" font-family="Manrope, Arial" font-size="16" opacity="0.82">Recruitment pipelines, interview coordination and offer movement.</text>
  <text x="324" y="286" fill="#1F1815" font-family="Space Grotesk, Arial" font-size="22" font-weight="700">2. Activate</text>
  <text x="324" y="322" fill="#5F534C" font-family="Manrope, Arial" font-size="16">Onboarding, induction, access setup and early readiness workflows.</text>
  <text x="534" y="448" fill="#1F1815" font-family="Space Grotesk, Arial" font-size="22" font-weight="700">3. Operate</text>
  <text x="534" y="484" fill="#5F534C" font-family="Manrope, Arial" font-size="16">Core HR, leave, payroll, reimbursement and daily workforce administration.</text>
  <text x="754" y="258" fill="#FFFFFF" font-family="Space Grotesk, Arial" font-size="22" font-weight="700">4. Grow</text>
  <text x="754" y="294" fill="#FFFFFF" font-family="Manrope, Arial" font-size="16" opacity="0.82">Learning, probation and performance programs with better visibility.</text>
  <text x="852" y="486" fill="#1F1815" font-family="Space Grotesk, Arial" font-size="22" font-weight="700">5. Exit</text>
  <text x="852" y="522" fill="#5F534C" font-family="Manrope, Arial" font-size="16">Exit clearance, recovery, settlement and full-and-final closure.</text>
</svg>
