<svg width="1200" height="620" viewBox="0 0 1200 620" fill="none" xmlns="http://www.w3.org/2000/svg">
  <defs>
    <linearGradient id="line" x1="129" y1="300" x2="1070" y2="300" gradientUnits="userSpaceOnUse">
      <stop stop-color="#FFB18C"/>
      <stop offset="1" stop-color="#FF5A1F"/>
    </linearGradient>
    <linearGradient id="cardA" x1="76" y1="101" x2="314" y2="311" gradientUnits="userSpaceOnUse">
      <stop stop-color="#FFF3EB"/>
      <stop offset="1" stop-color="#FFD9C7"/>
    </linearGradient>
    <linearGradient id="cardB" x1="0" y1="0" x2="1" y2="1">
      <stop stop-color="#FFF9F5"/>
      <stop offset="1" stop-color="#FFEADD"/>
    </linearGradient>
  </defs>
  <rect width="1200" height="620" rx="40" fill="#FFF9F5"/>
  <path d="M132 310H1070" stroke="url(#line)" stroke-width="8" stroke-linecap="round"/>
  <circle cx="150" cy="310" r="20" fill="#FF5A1F"/>
  <circle cx="430" cy="310" r="20" fill="#FF7C42"/>
  <circle cx="710" cy="310" r="20" fill="#FF9B63"/>
  <circle cx="990" cy="310" r="20" fill="#FFB790"/>
  <g>
    <rect x="70" y="82" width="244" height="170" rx="30" fill="url(#cardA)"/>
    <rect x="102" y="116" width="66" height="66" rx="22" fill="#1F1815"/>
    <rect x="190" y="126" width="88" height="14" rx="7" fill="#2C231F"/>
    <rect x="190" y="153" width="64" height="12" rx="6" fill="#8C7468"/>
    <rect x="102" y="208" width="176" height="14" rx="7" fill="#F38A58"/>
  </g>
  <g>
    <rect x="346" y="370" width="244" height="170" rx="30" fill="url(#cardB)"/>
    <rect x="378" y="404" width="66" height="66" rx="22" fill="#FF5A1F"/>
    <path d="M396 439L412 454L428 425" stroke="white" stroke-width="10" stroke-linecap="round" stroke-linejoin="round"/>
    <rect x="466" y="414" width="86" height="14" rx="7" fill="#2C231F"/>
    <rect x="466" y="441" width="72" height="12" rx="6" fill="#8C7468"/>
    <rect x="378" y="496" width="174" height="14" rx="7" fill="#F5B798"/>
  </g>
  <g>
    <rect x="626" y="82" width="244" height="170" rx="30" fill="#1F1815"/>
    <rect x="658" y="116" width="66" height="66" rx="22" fill="#FFF0E8"/>
    <rect x="746" y="126" width="90" height="14" rx="7" fill="#FFF0E8"/>
    <rect x="746" y="153" width="64" height="12" rx="6" fill="#B8A39A"/>
    <rect x="658" y="208" width="178" height="14" rx="7" fill="#FF7C42"/>
  </g>
  <g>
    <rect x="906" y="370" width="224" height="170" rx="30" fill="#FFF3EB"/>
    <rect x="938" y="404" width="66" height="66" rx="22" fill="#FFB18C"/>
    <rect x="1024" y="414" width="70" height="14" rx="7" fill="#2C231F"/>
    <rect x="1024" y="441" width="56" height="12" rx="6" fill="#8C7468"/>
    <rect x="938" y="496" width="156" height="14" rx="7" fill="#F38A58"/>
  </g>
  <text x="94" y="286" fill="#2C231F" font-family="Sora, Arial" font-size="28" font-weight="700">Hire</text>
  <text x="364" y="352" fill="#2C231F" font-family="Sora, Arial" font-size="28" font-weight="700">Onboard</text>
  <text x="652" y="286" fill="#FFF3EB" font-family="Sora, Arial" font-size="28" font-weight="700">Operate</text>
  <text x="926" y="352" fill="#2C231F" font-family="Sora, Arial" font-size="28" font-weight="700">Retain & Exit</text>
</svg>
