<svg width="1100" height="760" viewBox="0 0 1100 760" fill="none" xmlns="http://www.w3.org/2000/svg">
  <defs>
    <linearGradient id="modsBg" x1="92" y1="80" x2="986" y2="682" gradientUnits="userSpaceOnUse">
      <stop stop-color="#1A1715"/>
      <stop offset="1" stop-color="#312621"/>
    </linearGradient>
    <linearGradient id="modsAccent" x1="264" y1="196" x2="730" y2="558" gradientUnits="userSpaceOnUse">
      <stop stop-color="#FF5A1F"/>
      <stop offset="1" stop-color="#FFC8A7"/>
    </linearGradient>
  </defs>
  <rect width="1100" height="760" rx="36" fill="url(#modsBg)"/>
  <circle cx="888" cy="126" r="110" fill="#FF5A1F" fill-opacity="0.14"/>
  <rect x="78" y="84" width="944" height="592" rx="32" fill="#FFF8F4"/>
  <rect x="118" y="128" width="906" height="66" rx="22" fill="#FFFFFF" stroke="#F2D6C4" stroke-width="2"/>
  <rect x="150" y="152" width="186" height="16" rx="8" fill="#1F1815"/>
  <rect x="756" y="146" width="106" height="30" rx="15" fill="#FFF5EE" stroke="#F2D6C4" stroke-width="2"/>
  <rect x="878" y="146" width="108" height="30" rx="15" fill="#FF5A1F"/>
  <rect x="134" y="236" width="244" height="326" rx="30" fill="#1F1815"/>
  <rect x="426" y="212" width="292" height="370" rx="34" fill="url(#modsAccent)"/>
  <rect x="754" y="256" width="222" height="290" rx="30" fill="#FFF2E8"/>
  <text x="168" y="286" fill="#FFFFFF" font-family="Space Grotesk, Arial" font-size="24" font-weight="700">Foundation modules</text>
  <text x="168" y="326" fill="#FFFFFF" font-family="Manrope, Arial" font-size="16" opacity="0.78">Core HR, Leave, Payroll and daily process control.</text>
  <rect x="168" y="366" width="176" height="18" rx="9" fill="#FFFFFF" fill-opacity="0.18"/>
  <rect x="168" y="402" width="150" height="44" rx="18" fill="#FF5A1F"/>
  <rect x="168" y="468" width="132" height="12" rx="6" fill="#FFFFFF" fill-opacity="0.42"/>
  <rect x="456" y="254" width="136" height="14" rx="7" fill="#FFFFFF" fill-opacity="0.74"/>
  <text x="456" y="318" fill="#FFFFFF" font-family="Space Grotesk, Arial" font-size="32" font-weight="700">13 connected modules</text>
  <text x="456" y="356" fill="#FFFFFF" font-family="Manrope, Arial" font-size="17" opacity="0.86">One suite that scales from hiring and activation to payroll, growth and closure.</text>
  <rect x="456" y="408" width="104" height="72" rx="22" fill="#FFFFFF"/>
  <rect x="580" y="408" width="104" height="72" rx="22" fill="#1F1815" fill-opacity="0.18"/>
  <rect x="456" y="500" width="228" height="44" rx="20" fill="#FFFFFF"/>
  <text x="786" y="302" fill="#1F1815" font-family="Space Grotesk, Arial" font-size="24" font-weight="700">Growth modules</text>
  <text x="786" y="342" fill="#5F534C" font-family="Manrope, Arial" font-size="16">Learning, performance, probation and strategic development workflows.</text>
  <path d="M788 420L824 378L862 392L914 340L948 360" stroke="#FF5A1F" stroke-width="8" stroke-linecap="round" stroke-linejoin="round"/>
  <circle cx="788" cy="420" r="5" fill="#FF5A1F"/>
  <circle cx="824" cy="378" r="5" fill="#FF5A1F"/>
  <circle cx="862" cy="392" r="5" fill="#FF5A1F"/>
  <circle cx="914" cy="340" r="5" fill="#FF5A1F"/>
  <circle cx="948" cy="360" r="5" fill="#FF5A1F"/>
</svg>
