<svg width="860" height="540" viewBox="0 0 860 540" fill="none" xmlns="http://www.w3.org/2000/svg">
  <defs>
    <linearGradient id="shell-onboarding-workspace" x1="52" y1="38" x2="808" y2="502" gradientUnits="userSpaceOnUse">
      <stop stop-color="#FFFDFC"/>
      <stop offset="1" stop-color="#FFF1E8"/>
    </linearGradient>
    <linearGradient id="accent-onboarding-workspace" x1="176" y1="126" x2="522" y2="362" gradientUnits="userSpaceOnUse">
      <stop stop-color="#FF8E58"/>
      <stop offset="1" stop-color="#FFC7A7"/>
    </linearGradient>
  </defs>
  <rect width="860" height="540" rx="28" fill="url(#shell-onboarding-workspace)"/>
  <rect x="22" y="22" width="816" height="496" rx="24" fill="#FFFFFF" stroke="#F2D6C4" stroke-width="2"/>
  <rect x="22" y="22" width="180" height="496" rx="24" fill="#1E1815"/>
  <rect x="54" y="56" width="96" height="14" rx="7" fill="white" fill-opacity="0.92"/>
  <rect x="54" y="92" width="118" height="10" rx="5" fill="white" fill-opacity="0.34"/>
  <rect x="54" y="132" width="112" height="42" rx="16" fill="#FF8E58"/>
  <rect x="54" y="190" width="112" height="42" rx="16" fill="white" fill-opacity="0.08"/>
  <rect x="54" y="248" width="112" height="42" rx="16" fill="white" fill-opacity="0.08"/>
  <rect x="54" y="306" width="112" height="42" rx="16" fill="white" fill-opacity="0.08"/>
  <rect x="230" y="46" width="580" height="54" rx="18" fill="#FFF6F0" stroke="#F2D6C4"/>
  <rect x="256" y="64" width="150" height="12" rx="6" fill="#1F1815"/>
  <rect x="628" y="58" width="70" height="28" rx="14" fill="#FFFFFF" stroke="#F2D6C4"/>
  <rect x="714" y="58" width="70" height="28" rx="14" fill="#FF8E58"/>
  <text x="230" y="130" fill="#1F1815" font-family="Sora, Arial" font-size="24" font-weight="700">Onboarding command center</text>
  <text x="230" y="160" fill="#6C6058" font-family="Manrope, Arial" font-size="16">Onboarding operational workspace</text>
  <rect x="230" y="188" width="372" height="170" rx="24" fill="url(#accent-onboarding-workspace)"/>
  <rect x="620" y="188" width="190" height="170" rx="24" fill="#FFF7F2" stroke="#F2D6C4"/>
  <rect x="230" y="378" width="278" height="110" rx="22" fill="#FFFFFF" stroke="#F2D6C4"/>
  <rect x="526" y="378" width="284" height="110" rx="22" fill="#1F1815"/>
  <rect x="262" y="220" width="108" height="12" rx="6" fill="white" fill-opacity="0.74"/>
  <rect x="262" y="248" width="188" height="42" rx="16" fill="white"/>
  <rect x="262" y="310" width="72" height="10" rx="5" fill="white" fill-opacity="0.68"/>
  <rect x="346" y="310" width="120" height="10" rx="5" fill="white" fill-opacity="0.36"/>
  <text x="644" y="220" fill="#1F1815" font-family="Sora, Arial" font-size="16" font-weight="700">Task progress</text>
  <rect x="646" y="246" width="126" height="70" rx="18" fill="#FFFFFF" stroke="#F2D6C4"/>
  <path d="M666 294L690 270L714 282L744 252" stroke="#1F1815" stroke-width="6" stroke-linecap="round" stroke-linejoin="round"/>
  <circle cx="666" cy="294" r="5" fill="#FF8E58"/>
  <circle cx="690" cy="270" r="5" fill="#FF8E58"/>
  <circle cx="714" cy="282" r="5" fill="#FF8E58"/>
  <circle cx="744" cy="252" r="5" fill="#FF8E58"/>
  <text x="256" y="412" fill="#1F1815" font-family="Sora, Arial" font-size="16" font-weight="700">Approval flow</text>
  <rect x="256" y="434" width="68" height="10" rx="5" fill="#EAD9CD"/>
  <rect x="256" y="454" width="160" height="14" rx="7" fill="#FF8E58"/>
  <rect x="548" y="406" width="86" height="12" rx="6" fill="white" fill-opacity="0.64"/>
  <rect x="548" y="434" width="110" height="36" rx="14" fill="white"/>
  <rect x="674" y="434" width="104" height="36" rx="14" fill="#FF8E58"/>
  <text x="54" y="394" fill="white" font-family="Sora, Arial" font-size="16" font-weight="700">Task completion</text>
  <text x="54" y="420" fill="white" fill-opacity="0.72" font-family="Manrope, Arial" font-size="14">Asset readiness</text>
  <text x="54" y="444" fill="white" fill-opacity="0.72" font-family="Manrope, Arial" font-size="14">Access setup</text>
</svg>
